<svg width="1080" height="1920" viewBox="0 0 1080 1920" fill="none" xmlns="http://www.w3.org/2000/svg">
  <defs>
    <linearGradient id="bg" x1="70" y1="84" x2="930" y2="1780" gradientUnits="userSpaceOnUse">
      <stop stop-color="#19163E"/>
      <stop offset="0.52" stop-color="#16305E"/>
      <stop offset="1" stop-color="#58215B"/>
    </linearGradient>
    <radialGradient id="ga" cx="0" cy="0" r="1" gradientUnits="userSpaceOnUse" gradientTransform="translate(258 242) rotate(46) scale(360 320)">
      <stop stop-color="#79F7D4" stop-opacity="0.68"/>
      <stop offset="1" stop-color="#79F7D4" stop-opacity="0"/>
    </radialGradient>
    <radialGradient id="gb" cx="0" cy="0" r="1" gradientUnits="userSpaceOnUse" gradientTransform="translate(840 330) rotate(143) scale(380 280)">
      <stop stop-color="#FF7FD1" stop-opacity="0.6"/>
      <stop offset="1" stop-color="#FF7FD1" stop-opacity="0"/>
    </radialGradient>
    <linearGradient id="snake" x1="0" y1="0" x2="1" y2="1">
      <stop stop-color="#7FFFD4"/>
      <stop offset="1" stop-color="#8B7DFF"/>
    </linearGradient>
  </defs>
  <rect width="1080" height="1920" rx="48" fill="url(#bg)"/>
  <ellipse cx="258" cy="242" rx="300" ry="240" fill="url(#ga)"/>
  <ellipse cx="840" cy="330" rx="330" ry="240" fill="url(#gb)"/>
  <rect x="62" y="62" width="956" height="1796" rx="38" stroke="rgba(255,255,255,0.14)" stroke-width="2"/>

  <image href="./logo-mark.svg" x="84" y="96" width="116" height="116"/>
  <text x="224" y="165" fill="#FFF6A8" font-family="Trebuchet MS, Segoe UI, sans-serif" font-size="36" font-weight="700" letter-spacing="2">SNAKE POP LAB</text>
  <text x="86" y="348" fill="white" font-family="Trebuchet MS, Segoe UI, sans-serif" font-size="118" font-weight="800">Candy Neon</text>
  <text x="86" y="454" fill="white" font-family="Trebuchet MS, Segoe UI, sans-serif" font-size="118" font-weight="800">Snake Game</text>
  <text x="92" y="548" fill="#D9E3FF" font-family="Trebuchet MS, Segoe UI, sans-serif" font-size="42">连击音效、战绩海报、社媒快捷分享</text>

  <g transform="translate(134 702)">
    <rect x="0" y="0" width="812" height="812" rx="44" fill="rgba(12,18,38,0.72)" stroke="rgba(255,255,255,0.12)"/>
    <g opacity="0.52">
      <path d="M0 135H812" stroke="rgba(255,255,255,0.08)"/>
      <path d="M0 270H812" stroke="rgba(255,255,255,0.08)"/>
      <path d="M0 405H812" stroke="rgba(255,255,255,0.08)"/>
      <path d="M0 540H812" stroke="rgba(255,255,255,0.08)"/>
      <path d="M0 675H812" stroke="rgba(255,255,255,0.08)"/>
      <path d="M135 0V812" stroke="rgba(255,255,255,0.08)"/>
      <path d="M270 0V812" stroke="rgba(255,255,255,0.08)"/>
      <path d="M405 0V812" stroke="rgba(255,255,255,0.08)"/>
      <path d="M540 0V812" stroke="rgba(255,255,255,0.08)"/>
      <path d="M675 0V812" stroke="rgba(255,255,255,0.08)"/>
    </g>
    <circle cx="584" cy="216" r="36" fill="#FFE27A"/>
    <rect x="414" y="180" width="110" height="110" rx="30" fill="url(#snake)"/>
    <rect x="304" y="180" width="110" height="110" rx="30" fill="url(#snake)"/>
    <rect x="304" y="290" width="110" height="110" rx="30" fill="url(#snake)"/>
    <rect x="414" y="290" width="110" height="110" rx="30" fill="url(#snake)"/>
    <rect x="524" y="290" width="110" height="110" rx="30" fill="url(#snake)"/>
    <circle cx="454" cy="236" r="7" fill="#0C1430"/>
    <circle cx="484" cy="236" r="7" fill="#0C1430"/>
  </g>

  <g opacity="0.96">
    <rect x="92" y="1596" width="274" height="124" rx="30" fill="rgba(255,255,255,0.08)" stroke="rgba(255,255,255,0.12)"/>
    <text x="134" y="1646" fill="#C8D4F8" font-family="Trebuchet MS, Segoe UI, sans-serif" font-size="28">试玩 Live</text>
    <text x="134" y="1694" fill="#FFE27A" font-family="Trebuchet MS, Segoe UI, sans-serif" font-size="56" font-weight="800">PAGES</text>
  </g>
  <g opacity="0.96">
    <rect x="404" y="1596" width="274" height="124" rx="30" fill="rgba(255,255,255,0.08)" stroke="rgba(255,255,255,0.12)"/>
    <text x="446" y="1646" fill="#C8D4F8" font-family="Trebuchet MS, Segoe UI, sans-serif" font-size="28">分享 Share</text>
    <text x="446" y="1694" fill="#79F7D4" font-family="Trebuchet MS, Segoe UI, sans-serif" font-size="56" font-weight="800">SOCIAL</text>
  </g>
  <g opacity="0.96">
    <rect x="716" y="1596" width="274" height="124" rx="30" fill="rgba(255,255,255,0.08)" stroke="rgba(255,255,255,0.12)"/>
    <text x="758" y="1646" fill="#C8D4F8" font-family="Trebuchet MS, Segoe UI, sans-serif" font-size="28">音效 Sound</text>
    <text x="758" y="1694" fill="#FF7FD1" font-family="Trebuchet MS, Segoe UI, sans-serif" font-size="56" font-weight="800">COMBO</text>
  </g>

  <text x="92" y="1802" fill="#FFFFFF" font-family="Trebuchet MS, Segoe UI, sans-serif" font-size="32" font-weight="700">Created by zhangxueyou129-dotcom</text>
  <text x="92" y="1850" fill="#C8D4F8" font-family="Trebuchet MS, Segoe UI, sans-serif" font-size="28">https://zhangxueyou129-dotcom.github.io/snake-pop-lab/</text>
</svg>
